HIERARCHY
ROOT Hips
{
 OFFSET 0.000000 0.000000 0.000000
 CHANNELS 6 Xposition Yposition Zposition Yrotation Xrotation Zrotation
 JOINT Chest
 {
  OFFSET 0.000000 10.383400 0.001500
  CHANNELS 3 Yrotation Xrotation Zrotation
  JOINT Chest2
  {
   OFFSET 0.000000 10.418200 -0.003100
   CHANNELS 3 Yrotation Xrotation Zrotation
   JOINT Chest3
   {
    OFFSET 0.000000 10.375100 0.000000
    CHANNELS 3 Yrotation Xrotation Zrotation
    JOINT Chest4
    {
     OFFSET 0.000000 10.364600 0.000000
     CHANNELS 3 Yrotation Xrotation Zrotation
     JOINT Neck
     {
      OFFSET 0.000000 15.642200 0.000000
      CHANNELS 3 Yrotation Xrotation Zrotation
      JOINT Head
      {
       OFFSET 0.000000 9.697300 -0.006500
       CHANNELS 3 Yrotation Xrotation Zrotation
       End Site
       {
        OFFSET 0.000000 18.492200 -0.003400
       }
      }
     }
     JOINT RightCollar
     {
      OFFSET -3.166800 10.349300 0.000000
      CHANNELS 3 Yrotation Xrotation Zrotation
      JOINT RightShoulder
      {
       OFFSET -14.729700 0.000000 0.000000
       CHANNELS 3 Yrotation Xrotation Zrotation
       JOINT RightElbow
       {
        OFFSET 0.000000 -32.224300 0.000000
        CHANNELS 3 Yrotation Xrotation Zrotation
        JOINT RightWrist
        {
         OFFSET 0.000000 -26.084100 0.000000
         CHANNELS 3 Yrotation Xrotation Zrotation
         End Site
         {
          OFFSET 0.000000 -19.319400 0.000000
         }
        }
       }
      }
     }
     JOINT LeftCollar
     {
      OFFSET 3.166800 10.349300 0.000000
      CHANNELS 3 Yrotation Xrotation Zrotation
      JOINT LeftShoulder
      {
       OFFSET 14.729700 0.000000 0.000000
       CHANNELS 3 Yrotation Xrotation Zrotation
       JOINT LeftElbow
       {
        OFFSET 0.000000 -32.224300 0.000000
        CHANNELS 3 Yrotation Xrotation Zrotation
        JOINT LeftWrist
        {
         OFFSET 0.000000 -26.084100 0.000000
         CHANNELS 3 Yrotation Xrotation Zrotation
         End Site
         {
          OFFSET 0.000000 -19.319400 0.000000
         }
        }
       }
      }
     }
    }
   }
  }
 }
 JOINT RightHip
 {
  OFFSET -8.428900 -0.007500 -0.000800
  CHANNELS 3 Yrotation Xrotation Zrotation
  JOINT RightKnee
  {
   OFFSET 0.000000 -43.834600 0.000700
   CHANNELS 3 Yrotation Xrotation Zrotation
   JOINT RightAnkle
   {
    OFFSET 0.000000 -42.757000 0.001200
    CHANNELS 3 Yrotation Xrotation Zrotation
    JOINT RightToe
    {
     OFFSET 0.000000 -6.946900 15.649300
     CHANNELS 3 Yrotation Xrotation Zrotation
     End Site
     {
      OFFSET 0.000000 -1.580800 6.825800
     }
    }
   }
  }
 }
 JOINT LeftHip
 {
  OFFSET 8.428900 -0.007500 -0.000800
  CHANNELS 3 Yrotation Xrotation Zrotation
  JOINT LeftKnee
  {
   OFFSET 0.000000 -43.834600 0.000700
   CHANNELS 3 Yrotation Xrotation Zrotation
   JOINT LeftAnkle
   {
    OFFSET 0.000000 -42.757000 0.001200
    CHANNELS 3 Yrotation Xrotation Zrotation
    JOINT LeftToe
    {
     OFFSET 0.000000 -6.946900 15.649300
     CHANNELS 3 Yrotation Xrotation Zrotation
     End Site
     {
      OFFSET 0.000000 -1.580800 6.825800
     }
    }
   }
  }
 }
}
MOTION
Frames: 5
Frame Time: 0.008333
0.000000 93.354300 0.000000 0.000000 -5.767877 0.000000 0.000000 11.653817 0.000000 0.000000 -5.885947 0.000000 0.000000 -0.000000 0.000000 0.000000 -0.000000 0.000000 0.000000 12.528835 0.000000 0.000000 0.711642 0.000000 0.000000 -0.000000 0.000000 0.000000 0.000000 -90.000000 0.000000 -2.309062 0.000000 0.000000 2.309062 0.000000 0.000000 -0.000000 0.000000 0.000000 -0.000000 90.000000 0.000000 -2.309062 0.000000 0.000000 2.309062 0.000000 0.000000 8.520406 0.000000 0.000000 1.905762 0.000000 -0.000000 -4.658285 0.000000 0.000000 -0.000000 0.000000 0.000000 8.520406 0.000000 0.000000 1.905762 0.000000 -0.000000 -4.658285 0.000000 0.000000 -0.000000 0.000000
130.114014 126.989656 4.156554 -12.856482 -29.402792 -1.579314 -2.201725 17.169572 1.828422 -0.249163 1.836250 0.225554 -0.426261 3.050955 0.371694 -1.945205 15.067820 1.642425 1.902041 13.354816 -1.416449 4.181069 -10.908665 -3.442152 -1.015908 -7.593327 -4.978516 9.085240 -15.260978 -4.097635 31.435340 -34.938816 -5.515983 10.920587 3.414032 -22.093688 -1.188754 -8.260300 -3.732102 -1.459581 -8.638299 1.372533 -44.004182 -42.917945 18.941353 -26.722918 9.627045 22.711705 -7.573086 -40.005033 1.026446 -23.062996 74.482575 -24.833458 0.351171 -4.204981 4.988775 0.000186 -0.007387 0.000083 -3.262264 -33.053297 -8.054869 -0.678311 67.915537 2.279692 -13.262547 -4.214242 -3.969419 0.000262 0.001546 0.000116
130.113533 126.989663 4.156317 -12.863399 -29.402721 -1.578105 -2.202684 17.167056 1.830139 -0.251568 1.836566 0.223091 -0.427075 3.050750 0.371366 -1.949548 15.067356 1.640262 1.914534 13.358588 -1.417675 4.185143 -10.906421 -3.443234 -1.005267 -7.588673 -4.981620 9.078613 -15.281161 -4.093807 31.432349 -34.923097 -5.507353 10.924869 3.419300 -22.068429 -1.201750 -8.274678 -3.728595 -1.534541 -8.655740 1.416996 -43.896187 -42.904043 18.868461 -26.696405 9.644057 22.740382 -7.577184 -40.008706 1.030462 -23.059460 74.483729 -24.825498 0.355734 -4.203097 4.982667 0.003596 -0.009376 0.001596 -3.262428 -33.050873 -8.050087 -0.668113 67.912334 2.293034 -13.276865 -4.213956 -3.968216 0.000140 0.002374 0.000062
130.113804 126.989900 4.156768 -12.870727 -29.404997 -1.571502 -2.209117 17.165437 1.824234 -0.251154 1.836424 0.225737 -0.441990 3.044382 0.371235 -1.964645 15.063588 1.636241 1.941327 13.375995 -1.423480 4.201462 -10.892922 -3.448381 -0.975428 -7.575479 -4.995624 9.080666 -15.290365 -4.089799 31.390324 -34.906567 -5.506531 10.957462 3.403868 -22.036262 -1.181703 -8.274925 -3.739298 -1.544110 -8.654810 1.428551 -43.888628 -42.882200 18.832382 -26.668880 9.656856 22.778557 -7.588273 -40.010367 1.028182 -23.010660 74.491170 -24.782802 0.360939 -4.203563 4.979943 0.001322 -0.010583 0.000587 -3.258447 -33.045551 -8.051388 -0.667505 67.909564 2.293470 -13.277083 -4.214150 -3.963675 0.000657 0.002142 0.000292
130.112905 126.989798 4.156363 -12.873880 -29.402706 -1.573948 -2.222136 17.159923 1.823070 -0.246437 1.834612 0.227010 -0.446002 3.044313 0.369205 -1.960093 15.064275 1.635333 1.943597 13.381193 -1.420795 4.225372 -10.859697 -3.451731 -0.986248 -7.578134 -4.994290 9.092516 -15.294601 -4.090072 31.377491 -34.895948 -5.501064 10.962327 3.402001 -22.022527 -1.195288 -8.290324 -3.734108 -1.535318 -8.645357 1.426346 -43.868665 -42.872593 18.818231 -26.666658 9.670123 22.786355 -7.592132 -40.013286 1.032694 -22.997924 74.493630 -24.762760 0.359782 -4.204253 4.973792 0.003860 -0.008907 0.001713 -3.260515 -33.046008 -8.043281 -0.672695 67.909813 2.288070 -13.272913 -4.215796 -3.964337 0.000376 0.001828 0.000167
